#!OML:ASF I:\Random Stuff\random\construction\7_22_03\Session 2\subj1.ASF
:FULLY-SPECIFIED
:DEGREES
2264
root 3.9649 17.7435 1.13544 24.989 99.9232 16.6425
lowerback 0.93069 2.44263 -1.50624
upperback 1.34252 3.26225 1.83645
thorax 0.664044 1.61991 2.71035
lowerneck -21.7274 -2.31708 3.73437
upperneck 44.2577 -7.7759 11.3014
head 23.5132 0.313743 4.05238
rclavicle -7.45443e-016 3.45885e-014
rhumerus 4.24642 23.0459 -62.5717
rradius 97.8489
rwrist -34.065
rhand -25.838 19.1997
rfingers 7.12502
rthumb 0.702254 -10.7789
lclavicle -7.45443e-016 3.45885e-014
lhumerus -0.408174 -13.9183 60.1827
lradius 137.352
lwrist 28.9078
lhand -13.8632 35.2551
lfingers 7.12502
lthumb 12.261 784.876
rfemur -7.99513 19.8036 24.5718
rtibia 9.36386
rfoot -14.5261 -46.4106
rtoes 21.2216
lfemur -23.1195 -27.6189 -5.47079
ltibia 20.5938
lfoot -7.8704 21.4648
ltoes -33.4213
2265
root 3.95323 17.7426 1.14677 24.874 99.9527 16.5828
lowerback 0.942485 2.46651 -1.50706
upperback 1.41412 3.29465 1.86428
thorax 0.727362 1.63507 2.74069
lowerneck -21.6926 -2.18802 3.94622
upperneck 44.1367 -7.53155 10.9701
head 23.2807 0.38484 3.84641
rclavicle 6.80837e-015 3.97569e-015
rhumerus 4.55409 22.1419 -62.3313
rradius 96.5841
rwrist -36.2091
rhand -27.3505 17.2056
rfingers 7.12502
rthumb -0.758584 -12.7728
lclavicle 6.80837e-015 3.97569e-015
lhumerus -0.157088 -14.1662 60.2218
lradius 136.596
lwrist 28.6798
lhand -14.304 35.657
lfingers 7.12502
lthumb 11.836 785.302
rfemur -8.07118 19.7285 24.6271
rtibia 9.55353
rfoot -14.7305 -46.3782
rtoes 21.3013
lfemur -23.0523 -27.4306 -5.48311
ltibia 20.4874
lfoot -7.75208 21.2411
ltoes -33.646
2266
root 3.94043 17.7434 1.1581 24.8199 100.02 16.5987
lowerback 1.02849 2.42321 -1.48894
upperback 1.4922 3.23739 1.91301
thorax 0.760879 1.60601 2.77936
lowerneck -21.7785 -2.07439 3.90428
upperneck 44.1289 -7.31484 10.8917
head 23.2715 0.440406 3.86058
rclavicle -4.82053e-015 -1.2921e-014
rhumerus 4.86665 21.447 -62.1517
rradius 95.4464
rwrist -39.1969
rhand -29.8823 15.207
rfingers 7.12502
rthumb -3.20376 -14.7487
lclavicle -4.82053e-015 -1.2921e-014
lhumerus -0.0117261 -14.1689 60.1352
lradius 136.061
lwrist 29.0511
lhand -14.4802 35.9032
lfingers 7.12502
lthumb 11.6661 785.558
rfemur -8.12608 19.621 24.6926
rtibia 9.70278
rfoot -15.0254 -46.2728
rtoes 22.4499
lfemur -22.9813 -27.2685 -5.46884
ltibia 20.3748
lfoot -7.57635 21.0283
ltoes -33.9891
2267
root 3.92687 17.7476 1.16819 24.8414 100.151 16.6411
lowerback 1.11413 2.35645 -1.3813
upperback 1.54335 3.14904 1.92533
thorax 0.775599 1.56263 2.73018
lowerneck -21.8265 -1.96489 3.93398
upperneck 44.1036 -7.13066 10.8106
head 23.2305 0.496231 3.84707
rclavicle 3.33461e-014 4.37326e-015
rhumerus 5.10402 20.5406 -62.1209
rradius 94.6933
rwrist -44.3866
rhand -31.565 13.6608
rfingers 7.12502
rthumb -4.82872 -16.2641
lclavicle 3.33461e-014 4.37326e-015
lhumerus 0.120634 -14.1385 59.967
lradius 135.721
lwrist 29.6873
lhand -14.5459 36.1055
lfingers 7.12502
lthumb 11.6027 785.764
rfemur -8.21569 19.4567 24.734
rtibia 9.77242
rfoot -15.3419 -46.1217
rtoes 24.4314
lfemur -23.0216 -27.264 -5.37046
ltibia 20.294
lfoot -7.43521 20.9439
ltoes -34.2487
2268
root 3.91144 17.7483 1.17802 24.7653 100.299 16.5275
lowerback 1.18834 2.3224 -1.27301
upperback 1.57645 3.10425 1.91228
thorax 0.776895 1.54128 2.6542
lowerneck -21.8439 -1.90726 3.97319
upperneck 44.0171 -7.04407 10.7635
head 23.1372 0.520887 3.81706
rclavicle 2.20651e-014 -1.07344e-014
rhumerus 5.24867 19.6087 -62.0646
rradius 94.2976
rwrist -49.5551
rhand -32.7463 13.4184
rfingers 7.12502
rthumb -5.96932 -16.4775
lclavicle 2.20651e-014 -1.07344e-014
lhumerus 0.261304 -14.275 59.8362
lradius 135.52
lwrist 30.0571
lhand -14.6536 36.3432
lfingers 7.12502
lthumb 11.4989 786.008
rfemur -8.32547 19.2735 24.7581
rtibia 9.75745
rfoot -15.0277 -46.1049
rtoes 23.9707
lfemur -23.1739 -27.2679 -5.25198
ltibia 20.249
lfoot -7.37149 20.8265
ltoes -34.2103
2269
root 3.89513 17.7454 1.18918 24.7865 100.438 16.4639
lowerback 1.27184 2.30706 -1.19083
upperback 1.58446 3.08449 1.92289
thorax 0.743114 1.53273 2.61577
lowerneck -21.8592 -1.89003 3.91846
upperneck 43.9419 -7.00428 10.7832
head 23.0749 0.521941 3.83613
rclavicle 5.98342e-014 -8.34896e-015
rhumerus 5.31235 18.6575 -62.0222
rradius 94.136
rwrist -52.9599
rhand -33.5596 12.9309
rfingers 7.12502
rthumb -6.75447 -16.9414
lclavicle 5.98342e-014 -8.34896e-015
lhumerus 0.302676 -14.5224 59.7838
lradius 135.426
lwrist 30.1013
lhand -14.9249 36.3398
lfingers 7.12502
lthumb 11.2372 786.019
rfemur -8.46549 19.1092 24.8015
rtibia 9.71381
rfoot -14.4823 -46.1576
rtoes 21.8111
lfemur -23.4063 -27.3194 -5.07028
ltibia 20.2269
lfoot -7.30406 20.7647
ltoes -34.0375
2270
root 3.88023 17.744 1.20141 24.9418 100.587 16.5363
lowerback 1.3756 2.29232 -1.09897
upperback 1.56865 3.06583 1.94398
thorax 0.673397 1.52528 2.58109
lowerneck -21.8463 -1.90232 3.82053
upperneck 43.9351 -6.98973 10.8235
head 23.0727 0.513818 3.88116
rclavicle 8.05078e-015 3.35946e-014
rhumerus 5.21867 17.7897 -62.0572
rradius 94.1231
rwrist -54.1614
rhand -34.4213 11.3774
rfingers 7.12502
rthumb -7.58622 -18.4665
lclavicle 8.05078e-015 3.35946e-014
lhumerus 0.266043 -14.7915 59.7551
lradius 135.415
lwrist 30.0269
lhand -15.2171 36.2162
lfingers 7.12502
lthumb 10.9553 785.91
rfemur -8.6006 18.946 24.8662
rtibia 9.65247
rfoot -14.0705 -46.1986
rtoes 20.5961
lfemur -23.6512 -27.3965 -4.84987
ltibia 20.2369
lfoot -7.24132 20.7634
ltoes -33.8371
2271
root 3.86706 17.7432 1.21267 24.9588 100.75 16.4859
lowerback 1.45272 2.26032 -1.03984
upperback 1.56548 3.02425 1.98018
thorax 0.630252 1.5057 2.58218
lowerneck -21.7715 -1.92913 3.77853
upperneck 43.9432 -6.96062 10.7284
head 23.0326 0.502196 3.83886
rclavicle -2.09221e-014 -5.96354e-015
rhumerus 5.06552 17.0882 -62.0051
rradius 94.2386
rwrist -54.3663
rhand -35.1405 9.19659
rfingers 7.12502
rthumb -8.28036 -20.6211
lclavicle -2.09221e-014 -5.96354e-015
lhumerus 0.175389 -15.0167 59.7704
lradius 135.461
lwrist 29.9008
lhand -15.4295 36.2473
lfingers 7.12502
lthumb 10.7505 785.952
rfemur -8.72012 18.7591 24.9141
rtibia 9.61397
rfoot -13.6508 -46.2186
rtoes 20.0658
lfemur -23.8695 -27.4247 -4.68289
ltibia 20.2524
lfoot -7.22707 20.7009
ltoes -33.5497
2272
root 3.85447 17.7416 1.22277 25.0858 100.941 16.5502
lowerback 1.46997 2.20287 -0.951719
upperback 1.60481 2.9495 2.04154
thorax 0.666036 1.46893 2.59724
lowerneck -21.6574 -1.90643 3.9339
upperneck 43.9306 -6.85261 10.4191
head 22.9064 0.522344 3.64591
rclavicle -2.36554e-014 1.23246e-014
rhumerus 4.98958 16.4921 -61.8661
rradius 94.4591
rwrist -54.8127
rhand -35.5775 7.19307
rfingers 7.12502
rthumb -8.7021 -22.6076
lclavicle -2.36554e-014 1.23246e-014
lhumerus 0.0331905 -15.2155 59.8376
lradius 135.502
lwrist 29.5376
lhand -15.9219 36.4153
lfingers 7.12502
lthumb 10.2755 786.144
rfemur -8.87454 18.5561 24.9999
rtibia 9.67842
rfoot -13.4549 -46.1829
rtoes 19.8227
lfemur -24.0676 -27.5015 -4.48399
ltibia 20.2271
lfoot -7.162 20.6972
ltoes -33.4841
2273
root 3.8419 17.7406 1.23301 25.1293 101.118 16.5401
lowerback 1.51434 2.12969 -0.915952
upperback 1.64606 2.85339 2.10762
thorax 0.686905 1.42116 2.64562
lowerneck -21.7666 -1.99238 3.60408
upperneck 44.1463 -6.89834 10.5556
head 23.191 0.477225 3.8197
rclavicle -3.22528e-014 -3.00165e-014
rhumerus 4.9529 15.9477 -61.7201
rradius 94.7699
rwrist -55.7015
rhand -35.4271 5.90381
rfingers 7.12502
rthumb -8.557 -23.9028
lclavicle -3.22528e-014 -3.00165e-014
lhumerus -0.122227 -15.3938 59.964
lradius 135.451
lwrist 28.9096
lhand -16.5579 36.6478
lfingers 7.12502
lthumb 9.66195 786.406
rfemur -9.02599 18.3592 25.0704
rtibia 9.77174
rfoot -13.5115 -46.1028
rtoes 19.8626
lfemur -24.2431 -27.5784 -4.31286
ltibia 20.1907
lfoot -7.0059 20.7166
ltoes -33.7113
2274
root 3.83035 17.7409 1.24312 24.727 101.231 16.0427
lowerback 1.5373 2.07304 -1.03394
upperback 1.66409 2.77731 2.16188
thorax 0.688455 1.38196 2.76805
lowerneck -21.6999 -2.00181 3.65407
upperneck 44.1754 -6.84621 10.3606
head 23.1507 0.477464 3.70909
rclavicle -2.90723e-014 -2.38542e-014
rhumerus 4.87619 15.4439 -61.5037
rradius 95.1186
rwrist -56.1523
rhand -34.7699 5.26128
rfingers 7.12502
rthumb -7.92268 -24.5703
lclavicle -2.90723e-014 -2.38542e-014
lhumerus -0.225758 -15.4692 60.1995
lradius 135.335
lwrist 28.563
lhand -16.9513 36.8528
lfingers 7.12502
lthumb 9.2823 786.628
rfemur -9.16548 18.1811 25.0085
rtibia 9.78444
rfoot -13.6246 -46.0258
rtoes 19.9596
lfemur -24.4583 -27.5993 -4.25763
ltibia 20.193
lfoot -6.90529 20.6672
ltoes -33.8868
2275
root 3.8197 17.7424 1.2527 24.5617 101.336 15.7816
lowerback 1.48082 2.04442 -1.08129
upperback 1.71773 2.73937 2.21763
thorax 0.77241 1.36152 2.85614
lowerneck -21.7378 -2.03793 3.59735
upperneck 44.2506 -6.84238 10.272
head 23.2241 0.459836 3.68219
rclavicle -2.05742e-014 -9.54166e-015
rhumerus 4.8322 15.0643 -61.1791
rradius 95.4062
rwrist -54.9054
rhand -34.382 4.50619
rfingers 7.12502
rthumb -7.54833 -25.3391
lclavicle -2.05742e-014 -9.54166e-015
lhumerus -0.239704 -15.4588 60.4903
lradius 135.19
lwrist 28.5366
lhand -17.2587 36.9723
lfingers 7.12502
lthumb 8.98568 786.761
rfemur -9.26753 18.0317 24.9896
rtibia 9.72762
rfoot -13.7932 -45.959
rtoes 20.1681
lfemur -24.7037 -27.8781 -4.07419
ltibia 20.2362
lfoot -6.97897 20.8672
ltoes -33.6022
2276
root 3.8118 17.7424 1.26105 24.8451 101.416 16.058
lowerback 1.4655 2.02882 -0.997544
upperback 1.79872 2.72023 2.26413
thorax 0.866799 1.35181 2.86001
lowerneck -21.6582 -1.96868 3.90794
upperneck 44.1703 -6.71337 9.89449
head 23.0295 0.502959 3.41367
rclavicle -2.17669e-014 -6.36111e-015
rhumerus 4.81017 14.9968 -60.7995
rradius 95.596
rwrist -51.8052
rhand -34.3503 2.81834
rfingers 7.12502
rthumb -7.51774 -27.0281
lclavicle -2.17669e-014 -6.36111e-015
lhumerus -0.250666 -15.4184 60.7381
lradius 135.051
lwrist 28.68
lhand -17.5357 37.1686
lfingers 7.12502
lthumb 8.71841 786.969
rfemur -9.27766 17.9423 25.094
rtibia 9.66356
rfoot -13.7808 -45.9207
rtoes 20.146
lfemur -24.8388 -28.3732 -3.78485
ltibia 20.2858
lfoot -7.10323 21.3266
ltoes -33.1243
2277
root 3.80876 17.7399 1.26447 25.0907 101.426 16.3403
lowerback 1.4436 2.03741 -0.87644
upperback 1.88015 2.73311 2.27325
thorax 0.966994 1.35857 2.80442
lowerneck -21.738 -2.03071 3.78076
upperneck 44.3001 -6.75899 9.89921
head 23.1929 0.472599 3.45322
rclavicle -3.79679e-014 -1.31198e-014
rhumerus 4.74871 15.2173 -60.2822
rradius 95.7514
rwrist -48.3743
rhand -34.1198 0.540277
rfingers 7.12502
rthumb -7.29519 -29.314
lclavicle -3.79679e-014 -1.31198e-014
lhumerus -0.292033 -15.4198 60.996
lradius 134.955
lwrist 29.0916
lhand -17.8243 37.5385
lfingers 7.12502
lthumb 8.43988 787.35
rfemur -9.23993 17.9108 25.1646
rtibia 9.63218
rfoot -13.8015 -45.8604
rtoes 20.2951
lfemur -24.8777 -28.8546 -3.59033
ltibia 20.3196
lfoot -7.17493 21.8115
ltoes -32.8615
